HIERARCHY
ROOT Hips
{
  OFFSET 0.000000 0.000000 0.000000
  CHANNELS 6 Xposition Yposition Zposition Zrotation Xrotation Yrotation
  JOINT RightUpLeg
  {
    OFFSET -6.358888 -8.839857 -0.116047
    CHANNELS 3 Zrotation Xrotation Yrotation
    JOINT RightLeg
    {
      OFFSET -3.729180 -35.243996 15.968971
      CHANNELS 3 Zrotation Xrotation Yrotation
      JOINT RightFoot
      {
        OFFSET -0.176708 -42.816864 -4.888965
        CHANNELS 3 Zrotation Xrotation Yrotation
        JOINT RightToeBase
        {
          OFFSET -5.104969 -4.544273 13.272233
          CHANNELS 3 Zrotation Xrotation Yrotation
          End Site
          {
            OFFSET 0.000000 4.000000 0.000000
          }
        }
      }
    }
  }
  JOINT LeftUpLeg
  {
    OFFSET 5.803660 -8.550447 -0.191574
    CHANNELS 3 Zrotation Xrotation Yrotation
    JOINT LeftLeg
    {
      OFFSET 6.777910 -38.369690 -1.134978
      CHANNELS 3 Zrotation Xrotation Yrotation
      JOINT LeftFoot
      {
        OFFSET -12.770216 -30.196836 -29.480824
        CHANNELS 3 Zrotation Xrotation Yrotation
        JOINT LeftToeBase
        {
          OFFSET 3.552616 -11.548392 5.814538
          CHANNELS 3 Zrotation Xrotation Yrotation
          End Site
          {
            OFFSET 0.000000 4.000000 0.000000
          }
        }
      }
    }
  }
  JOINT Spine
  {
    OFFSET 0.041296 12.586099 -3.610791
    CHANNELS 3 Zrotation Xrotation Yrotation
    JOINT Spine1
    {
      OFFSET -0.761557 14.307737 0.914561
      CHANNELS 3 Zrotation Xrotation Yrotation
      JOINT Spine2
      {
        OFFSET -0.666493 4.100776 2.928467
        CHANNELS 3 Zrotation Xrotation Yrotation
        JOINT Neck
        {
          OFFSET -4.103655 21.479786 -1.846088
          CHANNELS 3 Zrotation Xrotation Yrotation
          JOINT Head
          {
            OFFSET -3.781586 5.838966 7.281078
            CHANNELS 3 Zrotation Xrotation Yrotation
            End Site
            {
              OFFSET 0.000000 4.000000 0.000000
            }
          }
        }
        JOINT RightShoulder
        {
          OFFSET -9.731565 10.475993 -3.688568
          CHANNELS 3 Zrotation Xrotation Yrotation
          JOINT RightArm
          {
            OFFSET -12.424199 -3.287065 -1.084198
            CHANNELS 3 Zrotation Xrotation Yrotation
            JOINT RightForeArm
            {
              OFFSET -3.319815 -24.641001 3.929306
              CHANNELS 3 Zrotation Xrotation Yrotation
              JOINT RightHand
              {
                OFFSET 8.848815 -13.592607 20.437965
                CHANNELS 3 Zrotation Xrotation Yrotation
                End Site
                {
                  OFFSET 0.000000 4.000000 0.000000
                }
              }
            }
          }
        }
        JOINT LeftShoulder
        {
          OFFSET 5.105793 12.704479 -0.581392
          CHANNELS 3 Zrotation Xrotation Yrotation
          JOINT LeftArm
          {
            OFFSET 13.429790 1.547694 2.509416
            CHANNELS 3 Zrotation Xrotation Yrotation
            JOINT LeftForeArm
            {
              OFFSET 9.257152 -23.699188 3.521061
              CHANNELS 3 Zrotation Xrotation Yrotation
              JOINT LeftHand
              {
                OFFSET -11.838621 -13.587070 19.066637
                CHANNELS 3 Zrotation Xrotation Yrotation
                End Site
                {
                  OFFSET 0.000000 4.000000 0.000000
                }
              }
            }
          }
        }
      }
    }
  }
}
MOTION
Frames: 5
Frame Time: 0.050000
-81.363365 2.359641 -34.428986 -4.935982 0.386488 -1.402645 0.229136 18.602046 -2.002206 8.147320 -19.710285 5.690196 -7.911006 4.422514 -19.776713 6.384758 -0.996310 20.391779 6.765344 -16.683971 -1.272541 20.314336 -14.397239 -8.970629 -17.190244 -8.667590 7.482898 -8.033103 35.284300 11.834849 6.288135 -4.162106 1.193340 9.035228 4.389892 -7.560449 -15.000718 -3.030484 6.221460 9.530290 -0.660219 -6.008896 -4.681500 0.922325 6.577037 4.937164 4.726896 -14.256590 3.026371 8.295229 14.021667 -13.464691 -1.444653 -8.523418 9.817878 -8.488930 8.542962 1.526596 4.242614 -18.343699 -2.715505 7.472271 23.527076 20.951784 12.672278 -1.472979 -18.945445 -24.177047 -6.591809
-81.331284 2.286839 -33.959713 -4.689783 0.382967 -1.332804 -0.003838 18.825013 -2.097958 8.072951 -19.895470 5.722553 -7.780881 4.106959 -19.298631 6.260192 -0.804209 19.869519 6.300706 -16.585311 -1.351829 20.870786 -16.453823 -7.907646 -18.244208 -8.091341 6.610332 -7.962764 36.651314 12.638272 6.121450 -4.258129 1.116699 9.198137 5.001689 -7.688513 -14.818354 -3.568015 6.226798 9.274139 -0.702758 -6.194104 -4.791002 0.952713 6.739738 5.260801 4.366017 -13.443570 2.761420 8.130980 13.201258 -13.503933 -3.076137 -9.550864 9.357911 -6.364840 9.194601 1.338901 4.248878 -18.690057 -2.942195 6.801931 23.533899 20.786642 12.900159 -1.654899 -18.341552 -23.909567 -6.071146
-81.099861 2.310121 -33.385620 -4.833318 0.546954 -1.367770 0.160311 19.438626 -2.108692 8.153374 -20.536157 5.882289 -7.626025 4.209864 -19.141588 6.151490 -1.092477 19.720303 6.585035 -15.988650 -1.157032 21.318015 -18.909308 -6.969585 -20.677561 -7.528332 5.863754 -6.575079 37.571648 13.397152 6.182472 -4.584140 1.165320 9.681286 5.611551 -7.964087 -15.049755 -4.048609 6.324719 9.276757 -0.867853 -6.396068 -4.899595 1.048390 6.942071 5.458594 4.161484 -13.068955 2.824543 8.208248 12.832041 -13.698916 -4.386845 -10.319193 9.047077 -4.913192 9.672280 1.304632 4.300478 -19.408912 -3.434084 6.128097 23.983608 20.787589 12.722325 -1.692379 -17.624466 -23.432953 -5.539778
-80.649940 2.276254 -32.711735 -5.234718 1.167515 -1.457240 0.265037 19.477336 -2.139857 8.034524 -21.041990 6.089135 -7.173139 3.852109 -18.951946 6.102118 -0.903094 19.436515 7.048138 -15.118297 -0.742973 21.528113 -21.818281 -5.297876 -22.200066 -7.560106 4.354256 -5.876032 39.231862 14.459251 6.018892 -5.408727 1.325038 10.289743 6.358356 -7.990834 -15.559394 -4.666106 6.021575 9.874428 -0.731959 -6.325230 -4.913180 0.973689 6.913375 5.873809 4.223517 -12.910268 2.808648 8.448602 12.681312 -12.781408 -5.808286 -9.539247 8.009443 -4.018393 8.838738 1.722311 4.634520 -20.744791 -4.191248 4.643800 24.814812 20.122127 12.255786 -3.230511 -14.756963 -22.689736 -2.702070
-79.919189 2.258146 -32.013969 -5.334490 1.801651 -1.459760 0.095201 19.655266 -2.280830 7.561515 -22.335324 6.247906 -6.492599 3.755266 -18.766461 6.130814 -0.340384 19.138322 6.867961 -14.341303 -0.462634 21.636443 -23.561268 -4.123949 -22.339151 -7.851856 3.170628 -5.873209 40.184650 15.019435 5.616904 -5.840235 1.406055 10.659963 6.563847 -7.849746 -15.897950 -4.872965 5.731446 10.118462 -0.951053 -6.005373 -4.651958 1.058965 6.623595 5.954081 4.217731 -13.243522 2.757356 9.376678 12.885296 -11.965650 -6.949713 -8.405780 7.333334 -4.203775 7.803706 2.256318 4.583987 -21.664208 -5.039940 3.102136 25.062349 19.287859 11.861787 -4.846476 -11.747812 -21.703363 0.247553
